<?xml version="1.0" encoding="utf-8"?>
<!-- Generator: Adobe Illustrator 19.0.0, SVG Export Plug-In . SVG Version: 6.00 Build 0)  -->
<svg version="1.1" id="Layer_1" xmlns="http://www.w3.org/2000/svg" xmlns:xlink="http://www.w3.org/1999/xlink" x="0px" y="0px" width="42" height="45"
	 viewBox="0 0 42 45" style="enable-background:new 0 0 42 42;" xml:space="preserve">
<style type="text/css">
	.st0{fill:#fff;}
</style>
<g id="XMLID_16_">
	<path id="XMLID_25_" class="st0" d="M35.7,34c-0.7,1-1.5,1.9-2.4,2.5c-0.1,0.1-0.1,0.2-0.2,0.2C33,36.8,32.9,37,32.8,37H19.9
		c-1.6,0-3-1-3.3-3H35.7z"/>
	<path id="XMLID_23_" class="st0" d="M36,7.9c-0.1,0-0.3,0-0.4,0.1l-1.2,0.6c-0.4,0.2-0.9,0.1-1.2-0.2l-0.8-0.8
		c-0.4-0.4-1-0.4-1.4,0l-0.8,0.8c-0.3,0.3-0.8,0.4-1.1,0.2L27.8,8c-0.8-0.4-1.7,0.4-1.4,1.2l2.4,5.2c0.4,0.9,0.1,2-0.7,2.6l-4,2.8
		c-0.9,0.8-1.4,1.9-1.4,3.1l-0.1,7.1c0,1.2,0.3,2.2,0.8,3.1c0,0,0-0.1,0-0.1H15v0.9c0,2.7,2.2,4.1,4.9,4.1h10.6
		c-0.1,1-0.1,0.4-0.2,0.4c-2.8,1.5-6,2.5-9.3,2.5C10,40.9,1,32,1,21c0-11,9-20,20-20C27,1,32.4,3.7,36,7.9z"/>
	<path id="XMLID_22_" class="st0" d="M41,20.6c-0.1-0.1-0.3-0.3-0.5-0.4L35.3,17c-0.9-0.6-1.2-1.7-0.8-2.7L37,9.2c0,0,0-0.1,0-0.1
		C39.4,12.3,40.9,16.3,41,20.6z"/>
</g>
</svg>
