<?xml version="1.0" encoding="utf-8"?>
<!-- Generator: Adobe Illustrator 19.0.0, SVG Export Plug-In . SVG Version: 6.00 Build 0)  -->
<svg version="1.1" id="Layer_1" xmlns="http://www.w3.org/2000/svg" xmlns:xlink="http://www.w3.org/1999/xlink" x="0px" y="0px" width="42" height="45"
	 viewBox="0 0 42 45" style="enable-background:new 0 0 42 42;" xml:space="preserve">
<style type="text/css">
	.st0{fill:#fff;}
</style>
<g id="XMLID_92_">
	<path id="XMLID_111_" class="st0" d="M4,26.8v2.7c0,0-0.8,0-1.3,0.1c-0.7-1.3-1.3-2.7-1.7-4.2C1.9,26.1,3,26.6,4,26.8z"/>
	<path id="XMLID_110_" class="st0" d="M5.2,19.4h0.6C5.6,19.4,5.4,19.4,5.2,19.4C5.2,19.4,5.2,19.4,5.2,19.4z"/>
	<path id="XMLID_109_" class="st0" d="M40.9,21C40.8,27,38,32.5,34,36.1V21H40.9z"/>
	<path id="XMLID_105_" class="st0" d="M31.5,9H37c-3.6-5-9.5-8.1-16-8.1C15.5,0.9,10.6,3,7,6.5c4,0.8,7,4.3,7,8.6
		c0,2.5-1,4.7-2.7,6.3c0,0.1,0,0.2,0,0.3C10.9,24.4,9,26.5,6,26.8v2.7c8,0.3,15.3,5.2,15.7,11.2c3.9-0.2,7.3-1.5,10.3-3.6V21h-7.7
		L31.5,9z M25.5,25.3l1.6-2.8l1.6,2.8l1.6,2.8H30v5.9l-2.9-3.3L24,34v-6h-0.1L25.5,25.3z"/>
	<path id="XMLID_99_" class="st0" d="M5.2,19.4C5.2,19.4,5.2,19.4,5.2,19.4c0.3,0,0.4,0,0.6,0H5.2z"/>
	<path id="XMLID_96_" class="st0" d="M5.8,19.4c-0.2,0-0.4,0-0.6,0c0,0,0,0-0.1,0H5.8z"/>
	<path id="XMLID_95_" class="st0" d="M5.8,19.4c-0.2,0-0.4,0-0.6,0c0,0,0,0-0.1,0H5.8z"/>
	<path id="XMLID_94_" class="st0" d="M11.7,16.8l-1.2,1L7.9,20C7.4,20.5,7,20.7,6,20.8v8.7c0,0-0.8,0-1.1,0c-0.2,0,0.1,0-0.9,0v-8.7
		c0-0.2-1.3-0.7-1.8-1.3L1,17.8c0.1-0.5,0.2-0.9,0.3-1.4c0-0.2,0.1-0.4,0.2-0.5l0.2,0.3l1.9,2.4C4,19,4.6,19.3,5.2,19.4
		c0,0,0,0,0.1,0c0.2,0,0.4,0,0.6,0c0.4-0.1,0.9-0.2,1.2-0.5l2.6-2.2l1.2-1L11.7,16.8z"/>
</g>
</svg>
