<svg xmlns="http://www.w3.org/2000/svg" width="277.28" height="135" viewBox="0 0 277.28 135"><defs><style>.cls-1{fill:#d8d8d8;}.cls-2,.cls-6{fill:#0c0800;}.cls-3{fill:#fff;}.cls-4{fill:#e5e5e5;}.cls-5{fill:none;stroke:#fff;stroke-linecap:round;stroke-linejoin:round;}.cls-6{opacity:0.43;}.cls-7{fill:#6cbce3;}.cls-8{fill:#61aec6;}</style></defs><g id="Layer_5" data-name="Layer 5"><path class="cls-1" d="M213.79,97.75s-5.58-9.3,5.63-17.61,21.92-11.43,22-17.48c0,0,14.34,17.69-9.08,29.45a36,36,0,0,0-11,10.43S215.38,101,213.79,97.75Z"/><path d="M202,105.07s-3.56-1.1-5.2.57c0,0,4.56-.74,10.77,2.36l-2.62-2.9Z"/><path d="M204.43,106.38s-3.69.51-4.47,2.71c0,0,3.81-2.6,10.76-2.42l-3.6-1.51Z"/><path class="cls-2" d="M192.25,75.33l-6.37.09,6.05,4.43-4.23,2.22,2,.65a3.08,3.08,0,0,0,.94.19A4.16,4.16,0,0,0,194.88,79C195,77.35,194.42,75.76,192.25,75.33Z"/><path class="cls-3" d="M195.75,92.83c12.7,14.6,9.69,27.48,9.69,27.48,27-16.7,32.86-37.44,21.65-51.85A19.85,19.85,0,0,0,199.24,65C190.58,71.7,188.55,84.55,195.75,92.83Z"/><path d="M200.34,73.27a4.16,4.16,0,0,1,1-1.61,3.13,3.13,0,0,1,1.79-1,5.56,5.56,0,0,1,.58,0,4.58,4.58,0,0,1,.56.17l.47.32a3.36,3.36,0,0,1,.34.41,3.49,3.49,0,0,1,.45.88,6.25,6.25,0,0,1,.15,1,7.47,7.47,0,0,1-.59-.72,6.57,6.57,0,0,0-.59-.59,1.49,1.49,0,0,0-1.24-.44,3.85,3.85,0,0,0-1.43.6C201.35,72.57,200.86,72.91,200.34,73.27Z"/><path class="cls-4" d="M214.24,85.67s6.59-8.61,18.45-1.25,18.7,16.17,24.36,14c0,0-11.17,19.84-30.72,2.4a36,36,0,0,0-13.76-6.42S211.81,88.35,214.24,85.67Z"/><ellipse class="cls-3" cx="91.54" cy="36.9" rx="4.29" ry="2.27" transform="translate(-7.16 36.76) rotate(-21.87)"/><polyline class="cls-5" points="95.52 35.31 92.66 17.91 105.24 10.76"/><ellipse class="cls-3" cx="104.12" cy="29.75" rx="4.29" ry="2.27" transform="translate(-3.59 40.93) rotate(-21.87)"/><line class="cls-5" x1="105.24" y1="10.76" x2="108.1" y2="28.16"/><line class="cls-5" x1="92.93" y1="19.57" x2="105.52" y2="12.44"/><ellipse class="cls-3" cx="141.49" cy="56.07" rx="2.27" ry="4.29" transform="translate(54.71 181.1) rotate(-76.85)"/><polyline class="cls-5" points="145.67 57.05 153.31 41.16 167.72 42.52"/><ellipse class="cls-3" cx="155.9" cy="57.44" rx="2.27" ry="4.29" transform="translate(64.51 196.19) rotate(-76.85)"/><line class="cls-5" x1="167.72" y1="42.52" x2="160.08" y2="58.41"/><line class="cls-5" x1="152.58" y1="42.68" x2="166.98" y2="44.06"/><path class="cls-6" d="M63.35,129.48c0,.7-11.31,2.57-24.48,2.07-11.13-.42-23.24-1.69-23.24-2.92a35.7,35.7,0,0,1,5.48-1.09H57C60.84,128,63.35,128.59,63.35,129.48Z"/><path d="M57.68,127.18s3.86-.14,5,2c0,0-4.36-2-11.41-.55l3.4-2.18Z"/><path d="M54.86,127.82s3.55,1.51,3.74,3.92c0,0-3.12-3.63-10.11-5.33l4-.54Z"/><path class="cls-2" d="M76,95.49l6.55-.9-5.52,5.48,4.69,1.62-1.92,1a3.53,3.53,0,0,1-.94.34,4.32,4.32,0,0,1-5-3.35C73.56,98,73.87,96.26,76,95.49Z"/><path class="cls-7" d="M36.7,99.39c-1.76,20-13.54,27-13.54,27C55,134.5,74.72,124,77.41,105.26A20.57,20.57,0,0,0,60,82C48.75,80.35,37.7,88.08,36.7,99.39Z"/><path d="M68.17,94.73c-.59-.28-1.14-.56-1.69-.79a3.8,3.8,0,0,0-1.56-.37,1.52,1.52,0,0,0-1.22.66c-.19.2-.31.47-.5.71a7.86,7.86,0,0,1-.47.83,6.57,6.57,0,0,1,0-1,3.64,3.64,0,0,1,.31-1,4.48,4.48,0,0,1,.28-.47l.43-.4a3.86,3.86,0,0,1,.54-.26,3.71,3.71,0,0,1,.58-.11,3.3,3.3,0,0,1,2,.7A4.33,4.33,0,0,1,68.17,94.73Z"/><path class="cls-8" d="M53.87,101.92s-10.43-3.64-16.17,5.42-6.46,17.41-12.42,17.88c0,0,22.24,10.51,28.69-8.07a40.42,40.42,0,0,1,6.3-9.81S57.43,102.92,53.87,101.92Z"/></g></svg>