<?xml version="1.0" encoding="utf-8"?>
<!-- Generator: Adobe Illustrator 19.0.0, SVG Export Plug-In . SVG Version: 6.00 Build 0)  -->
<svg version="1.1" id="Layer_1" xmlns="http://www.w3.org/2000/svg" xmlns:xlink="http://www.w3.org/1999/xlink" x="0px" y="0px" width="42" height="45"
	 viewBox="0 0 42 45" style="enable-background:new 0 0 42 42;" xml:space="preserve">
<style type="text/css">
	.st0{fill:#fff;}
</style>
<g id="XMLID_117_">
	<path id="XMLID_140_" class="st0" d="M25.3,12.6L25.3,12.6C25.3,12.6,25.3,12.6,25.3,12.6C25.3,12.6,25.3,12.6,25.3,12.6z"/>
	<path id="XMLID_139_" class="st0" d="M29,39.1l0.3,0.1c-2.6,1.2-5.3,1.9-8.3,1.9c-11.1,0-20-9-20-20C1,9.9,10,1,21,1
		c3.8,0,7.4,1.1,10.4,2.9c-0.1,0-0.1,0-0.2,0c-0.1,0-0.1,0.1-0.2,0.1h0l-5.6-0.1l-0.9,5.3c-0.2,1.2,0.1,2.6,0.7,3.6
		c-1.4-0.3-3,0.2-4.1,1.2h0l-4.3,3.5l2.5,4.5c0.7,1.1,1.7,1.7,2.7,2.1v0.1c0,0.7-1.2,1.7-1.4,2.9l-0.8,5.5l5.2,1.8
		c0.5,0.2,0.9,0.3,1.5,0.3c0.6,0,1.6-0.1,1.6-0.3l0,0c0,0,0,0,0,0c0,1.2-0.2,2.4,0.4,3.5L29,39.1L29,39.1z"/>
	<path id="XMLID_138_" class="st0" d="M35,35.6c-1.2,1.1-2.6,2-4,2.8l-0.1,0l-0.8-1.2c-0.7-1.2-0.6-2.6,0.1-3.7
		c0.1-0.1,0.3-0.2,0.4-0.2l0.3,0v0C32,34.2,33.4,35,35,35.6z"/>
	<path id="XMLID_136_" class="st0" d="M35.2,26.5l-2.8-2.3l0,0l1.8,4.1c0.7,1.7,2.2,2.8,4,3.1c0,0,0,0,0,0c-0.7,1.1-1.4,2.1-2.3,3.1
		l0,0c0,0,0,0,0,0c-3.4-1-6.3-3.4-8-6.6c-1-1.9-1.6-4-1.6-6.3c0-6.3,4.4-11.7,10.3-13.1c-0.1-0.1-0.2-0.2-0.3-0.3
		c0.1,0.1,0.2,0.2,0.3,0.3c0.5,0.6,1,1.3,1.4,2c-2.5,1-4.3,3.4-4.3,6.3c0,3.7,3,6.7,6.7,6.7c0.2,0,0.3,0,0.5,0
		c-0.2,1.7-0.6,3.4-1.3,4.9C38,28.2,36.5,27.5,35.2,26.5z"/>
	<path id="XMLID_135_" class="st0" d="M39.7,28.4C39.7,28.4,39.6,28.4,39.7,28.4c-1.6-0.1-3.2-0.8-4.4-1.9l-2.8-2.3l0,0l2.8,2.3
		C36.5,27.5,38,28.2,39.7,28.4z"/>
	<path id="XMLID_134_" class="st0" d="M37.1,16.6c0-1.5,1-2.8,2.4-3.2c0.8,2,1.3,4.2,1.4,6.5c-0.2,0-0.4,0-0.6,0
		C38.6,20,37.1,18.5,37.1,16.6z"/>
	<path id="XMLID_131_" class="st0" d="M41,19.9c-0.2,0-0.4,0-0.6,0c-1.8,0-3.3-1.5-3.3-3.3c0-1.5,1-2.8,2.4-3.2
		C40.4,15.5,40.9,17.6,41,19.9z"/>
	<path id="XMLID_130_" class="st0" d="M41,19.9c-0.2,0-0.4,0-0.6,0c-1.8,0-3.3-1.5-3.3-3.3c0-1.5,1-2.8,2.4-3.2
		C40.4,15.5,40.9,17.6,41,19.9z"/>
	<path id="XMLID_129_" class="st0" d="M38.2,31.3C38.2,31.3,38.2,31.3,38.2,31.3c-1.8-0.2-3.3-1.4-4-3.1l-1.8-4.1l1.8,4.1
		C34.9,29.9,36.4,31,38.2,31.3z"/>
	<path id="XMLID_128_" class="st0" d="M26.8,14.2C26.8,14.2,26.8,14.2,26.8,14.2C26.9,14.2,26.9,14.2,26.8,14.2l0.3,0.2"/>
	<path id="XMLID_126_" class="st0" d="M25.3,12.6L25.3,12.6C25.3,12.6,25.3,12.6,25.3,12.6C25.3,12.6,25.3,12.6,25.3,12.6z"/>
	<path id="XMLID_125_" class="st0" d="M34,7.7L34,7.7l-0.1,0.1c-2.5,1.1-4.6,2.8-6.2,5l-0.1,0.1c-0.6-0.4-1.1-0.9-1.4-1.5
		c-0.3-0.6-0.3-1.3-0.2-2l0.7-4l3.7,0.3L31.1,6h0c1.4,0,2.6,0.5,3.1,1.9L34,7.7z"/>
	<line id="XMLID_124_" class="st0" x1="27.2" y1="14.2" x2="27.2" y2="14.2"/>
	<path id="XMLID_122_" class="st0" d="M24.9,21.6c0,0.4,0,0.8,0,1.2l-0.6,0.1c-0.5,0.1-1,0.1-1.5-0.1c-0.8-0.2-1.6-0.8-2-1.5
		l-2.1-3.6l3.4-2.8c0.8-0.7,1.9-0.9,2.9-0.7c0.3,0.1,0.7,0.2,1,0.4l0.5,0.3C25.5,16.8,24.9,19.1,24.9,21.6z"/>
	<path id="XMLID_121_" class="st0" d="M25.3,12.6L25.3,12.6C25.3,12.6,25.3,12.6,25.3,12.6C25.3,12.6,25.3,12.6,25.3,12.6z"/>
	<path id="XMLID_120_" class="st0" d="M29.2,32c-0.3,0.3-0.6,0.6-0.9,0.8c-0.1,0-0.1,0.1-0.2,0.1c-0.1,0.1-0.3,0.1-0.4,0.2
		c-0.7,0.2-1.4,0.2-2.1,0l-3.9-1.4l0.7-4.3c0.1-0.7,0.5-1.3,0.9-1.8c0.5-0.5,1.1-0.8,1.8-1l0.1,0l0,0C25.7,27.4,27.2,30,29.2,32z"/>
	<polygon id="XMLID_119_" class="st0" points="28.3,34.4 28.3,34.4 28.3,34.4 	"/>
	<path id="XMLID_118_" class="st0" d="M31,38.4L31,38.4l-0.8-1.2C30.1,37,30,36.9,30,36.8c-0.1-0.1-0.1-0.3-0.2-0.4
		c0-0.1,0-0.2-0.1-0.2c-0.2-1,0-2.1,0.7-2.9l0,0l0,0c-0.1,0.1-0.1,0.2-0.2,0.2c-0.1,0.1-0.2,0.3-0.2,0.4c0,0,0,0,0,0.1
		c-0.5,1-0.4,2.2,0.2,3.2L31,38.4z"/>
</g>
</svg>
