<?xml version="1.0" encoding="utf-8"?>
<!-- Generator: Adobe Illustrator 19.0.0, SVG Export Plug-In . SVG Version: 6.00 Build 0)  -->
<svg version="1.1" id="Layer_1" xmlns="http://www.w3.org/2000/svg" xmlns:xlink="http://www.w3.org/1999/xlink" x="0px" y="0px"  width="42" height="45" fill="#fff"
	 viewBox="0 0 42 45" style="enable-background:new 0 0 42 42;" xml:space="preserve">
<g id="XMLID_24_">
	<path id="XMLID_55_" d="M41,22.8V23c0,4-1,8-3.1,11H23V23h-0.3l9.2-12.4L41,22.8z"/>
	<polygon id="XMLID_54_" points="32,10.7 22.7,23.3 32,10.7 	"/>
	<path id="XMLID_53_" d="M35.4,8H21.8L10.3,23H10v16.4c-5-3.6-8.9-9.8-8.8-16.8c0.1-11,9.2-20.2,20.2-20.1C26.9,2.5,31.8,5,35.4,8z"
		/>
	<rect id="XMLID_52_" x="12" y="23" width="9" height="15"/>
	<polygon id="XMLID_51_" points="32,10.7 22.7,23.3 32,10.7 	"/>
	<polygon id="XMLID_50_" points="32,10.7 22.7,23.3 32,10.7 	"/>
	<polygon id="XMLID_49_" points="32,10.7 22.7,23.3 32,10.7 	"/>
	<line id="XMLID_31_" x1="35.4" y1="8.7" x2="35.4" y2="8.7"/>
</g>
</svg>
