<?xml version="1.0" encoding="utf-8"?>
<!-- Generator: Adobe Illustrator 19.0.0, SVG Export Plug-In . SVG Version: 6.00 Build 0)  -->
<svg version="1.1" id="Layer_1" xmlns="http://www.w3.org/2000/svg" xmlns:xlink="http://www.w3.org/1999/xlink" x="0px" y="0px" width="42" height="45"
	 viewBox="0 0 42 45" style="enable-background:new 0 0 42 42;" xml:space="preserve">
<style type="text/css">
	.st0{fill:#fff;}
</style>
<g id="XMLID_12_">
	<path id="XMLID_28_" class="st0" d="M40.6,17.5c0.1,0.6,0.2,1.2,0.3,1.9c-0.1-0.6-0.2-1.1-0.3-1.7c-0.3-0.5-0.9-0.6-1.5-0.6H39
		v-0.9c0-1.2-1.5-2.1-2.5-2.1h-0.1c-0.1,0-0.1,0-0.2,0c-0.4-0.1-0.8-0.6-0.8-1.1c0-0.1,0-0.1,0-0.2c0-0.1,0-0.1-0.1-0.2
		c0,0,0-0.1-0.1-0.1c0-0.1-0.1-0.2-0.2-0.2C34.9,12,34.7,12,34.5,12c-0.1,0-0.1,0-0.2,0H29c-0.2,0-0.3,0-0.5,0c0,0-0.1,0-0.1,0h0
		c0,0-0.3,0.1-0.3,0.2v0c0,0,0,0.1,0,0.1c-0.1,0.1-0.1,0.2-0.1,0.4c0,0.1,0,0.1,0,0.2c0,0.6-0.4,1.1-0.9,1.1h-0.2
		c-1,0-1.9,1-1.9,2.1l0,0.9h-0.8c-1,0-1.2,0.6-1.2,1.8V20h-1.8c-1.1,0-1.9,1-1.9,2.1l0,0.9h-0.8c-1,0-1.5,0.8-1.5,2v1h-1.5
		c-1,0-1.5,1.1-1.5,2.3v11.6C6,37,1.2,29.8,1.2,21.4c0-11,8.9-20,19.9-20C30.8,1.4,38.8,8.3,40.6,17.5z"/>
	<path id="XMLID_29_" class="st0" d="M26.4,40.7c0.1,0,0.2-0.1,0.3-0.1v0.1l-0.2,0H26.4z"/>
	<path id="XMLID_30_" class="st0" d="M27.9,12.8c0-0.1,0-0.1,0-0.2C27.9,12.8,27.9,12.8,27.9,12.8c0,0.6-0.4,1.2-0.9,1.2
		C27.5,14,27.9,13.4,27.9,12.8z"/>
	<path id="XMLID_31_" class="st0" d="M27.9,12.7c0-0.2,0.1-0.3,0.2-0.4C28,12.4,28,12.5,27.9,12.7z"/>
	<path id="XMLID_32_" class="st0" d="M34.5,12c0.2,0,0.4,0,0.6,0.1v0C34.9,12,34.7,12,34.5,12z"/>
	<path id="XMLID_33_" class="st0" d="M36.9,33.6L36.9,33.6C36.9,33.6,36.8,33.6,36.9,33.6L36.9,33.6c0,0,0-0.1,0-0.1V33.6z"/>
	<path id="XMLID_34_" class="st0" d="M36.9,33.4C36.9,33.4,36.9,33.5,36.9,33.4l-0.1-2.1l-3-5.3h0.1l3,5.3L36.9,33.4z"/>
	<path id="XMLID_14_" class="st0" d="M13.7,39.9L13.7,39.9L13.7,39.9C13.6,39.9,13.6,39.9,13.7,39.9z"/>
	<path id="XMLID_25_" class="st0" d="M26.4,40.7c0.1,0,0.2-0.1,0.3-0.1v0.1l-0.2,0H26.4z"/>
	<path id="XMLID_26_" class="st0" d="M37.1,33.6c-2.5,3.3-6.1,5.8-10.1,7v-9.4l2.8-5.1l4-0.1h0.1l3,5.3l0.1,2.1L37.1,33.6L37.1,33.6
		z"/>
</g>
</svg>
