<?xml version="1.0" encoding="utf-8"?>
<!-- Generator: Adobe Illustrator 19.0.0, SVG Export Plug-In . SVG Version: 6.00 Build 0)  -->
<svg version="1.1" id="Layer_1" xmlns="http://www.w3.org/2000/svg" xmlns:xlink="http://www.w3.org/1999/xlink" x="0px" y="0px" width="42" height="45"
	 viewBox="0 0 42 45" style="enable-background:new 0 0 42 42;" xml:space="preserve">
<style type="text/css">
	.st0{fill:#fff;}
</style>
<g id="XMLID_5429_">
	<path id="XMLID_5445_" class="st0" d="M36.8,33.4C36.8,33.4,36.8,33.4,36.8,33.4L36.8,33.4C36.8,33.4,36.8,33.4,36.8,33.4z"/>
	<path id="XMLID_5434_" class="st0" d="M31.7,23c-0.6-0.4-1.3-0.5-2-0.3l-2.2,0.7l0.2,0.5c0.1,0,0.3,0,0.4,0l2.1,0.7
		c0.4,0.1,0.8,0.1,1.1-0.2l1.3-0.9L31.7,23z M31.7,23c-0.6-0.4-1.3-0.5-2-0.3l-2.2,0.7l0.2,0.5c0.1,0,0.3,0,0.4,0l2.1,0.7
		c0.4,0.1,0.8,0.1,1.1-0.2l1.3-0.9L31.7,23z M31.7,23c-0.6-0.4-1.3-0.5-2-0.3l-2.2,0.7l0.2,0.5c0.1,0,0.3,0,0.4,0l2.1,0.7
		c0.4,0.1,0.8,0.1,1.1-0.2l1.3-0.9L31.7,23z M30.5,31c0.1,0,0.1-0.1,0.2-0.1c0.1,0,0.3,0,0.4,0c0,0,0,0,0.1,0l0.7,0.4
		c0.1,0.1,0.2,0.1,0.3,0.1c0.2,0.1,0.4,0.2,0.6,0.2c0,0,0,0,0.1,0c0.1,0,0.2,0.1,0.3,0.1c0.1,0,0.1,0,0.2,0.1
		c0.3,0.1,0.6,0.1,0.9,0.1h3.6c2-3,3.2-6.9,3.2-10.9c0-0.4,0-0.8,0-1.1v0l-5.8-2c-1.6-0.5-3.3-0.9-4.9-0.9h-3.5
		c-0.3,0-0.6,0.3-0.9,0.5l-2.4,3.4c0,0,0.2,0.1,0.1,0.1L23.4,21l0.1,1.2l0.1-0.2l-0.1,0.2l0.1,0.7l1.3,7.5c0,0.3,0.1,0.6,0.2,0.8
		c0,0.1,0.1,0.3,0.1,0.4c0,0.1,0.1,0.3,0.1,0.4c0,0.1,0.1,0.3,0.1,0.4l0,0c0,0.1,0.1,0.3,0.2,0.4l0,0c0.3,0.7,0.7,1.4,1.1,2
		c0,0,0,0,0,0c0.5,0.8,1.1,1.4,1.8,2.1l0,0l2,1.9l0,0.2h0c2.5-2,4.6-4,6.3-6h-2.5c-1.1,0-2.1-0.1-3-0.6l-0.7-0.3
		c-0.3-0.2-0.5-0.6-0.3-0.9C30.3,31.1,30.4,31.1,30.5,31z M29.7,26l-2.1-0.7c-0.4-0.1-0.6-0.5-0.4-0.9c0.1-0.2,0.2-0.4,0.5-0.4
		c0.1,0,0.3,0,0.4,0l2.1,0.7c0.4,0.1,0.8,0.1,1.1-0.2l1.3-0.9L31.7,23c-0.6-0.4-1.3-0.5-2-0.3l-2.2,0.7l-2.4,0.8
		c-0.4,0.1-0.8-0.1-0.9-0.4c-0.1-0.4,0.1-0.8,0.4-0.9l4.6-1.5c1.1-0.4,2.3-0.2,3.2,0.4l2.7,1.8l-3.1,2c-0.5,0.3-1,0.5-1.5,0.5
		C30.2,26.1,30,26.1,29.7,26z M31.7,23c-0.6-0.4-1.3-0.5-2-0.3l-2.2,0.7l0.2,0.5c0.1,0,0.3,0,0.4,0l2.1,0.7c0.4,0.1,0.8,0.1,1.1-0.2
		l1.3-0.9L31.7,23z M31.7,23c-0.6-0.4-1.3-0.5-2-0.3l-2.2,0.7l0.2,0.5c0.1,0,0.3,0,0.4,0l2.1,0.7c0.4,0.1,0.8,0.1,1.1-0.2l1.3-0.9
		L31.7,23z"/>
	<path id="XMLID_5433_" class="st0" d="M36.8,33.4L36.8,33.4C36.8,33.4,36.8,33.4,36.8,33.4C36.8,33.4,36.8,33.4,36.8,33.4z"/>
	<path id="XMLID_5432_" class="st0" d="M33.2,5h-1.4C30.3,5,29,6.1,29,7.6V9h-0.2c-2.2,0-4.4,0.9-5.9,2.6c-1.5,1.7-2.2,3.9-1.9,6.1
		l0.5,3.5l-0.5-0.2c-0.6-0.3-1.3-0.2-1.8,0.2c-0.5,0.4-0.8,1.1-0.6,1.7l3.3,13c0.2,0.8,0.9,1.2,1.7,1.2h0.1c0.9,0,1.7-0.6,1.7-1.5
		c0.6,0.8,1.3,1.7,2,2.4l1.6,1.4c-2.5,1.1-5.2,1.7-8,1.7c-11,0-20-8.9-20-20S10,1,21,1c4.4,0,8.5,1.4,11.9,3.8C33,4.9,33.1,5,33.2,5
		z"/>
	<path id="XMLID_5431_" class="st0" d="M36.8,33.4L36.8,33.4C36.8,33.4,36.8,33.4,36.8,33.4C36.8,33.4,36.8,33.4,36.8,33.4z"/>
	<path id="XMLID_5430_" class="st0" d="M24,33.1L24,33.1l0,2.6c0,0.2-0.1,0.4-0.2,0.4h-0.1c-0.1,0-0.3-0.2-0.3-0.3L20,22.6
		c0-0.2,0-0.3,0.1-0.3c0.1,0,0.2-0.1,0.3,0L22,23l0,0.1l1.4,7.6C23.5,31.5,24,32.3,24,33.1z"/>
</g>
</svg>
