<?xml version="1.0" encoding="utf-8"?>
<!-- Generator: Adobe Illustrator 19.0.0, SVG Export Plug-In . SVG Version: 6.00 Build 0)  -->
<svg version="1.1" id="Layer_1" xmlns="http://www.w3.org/2000/svg" xmlns:xlink="http://www.w3.org/1999/xlink" x="0px" y="0px" width="42" height="45"
	 viewBox="0 0 42 45" style="enable-background:new 0 0 42 45;" xml:space="preserve">
<style type="text/css">
	.st0{fill:#fff;}
</style>
<g id="XMLID_5500_">
	<path id="XMLID_5510_" class="st0" d="M41,24c0,3.6-1,7-2.7,10c-0.9-5.5-2.5-9.2-4.3-9.2c1.6,0,3-1.3,3-2.9c0-1.7-1.4-2.9-3-2.9
		c0,0-2.1,0-3.4,0c0.9,0,1.6-1.3,1.6-2.3c0-1.3-2.3-4.5-2.3-4.5s-2.3,3.3-2.3,4.5c0,1,0.7,2.2,1.6,2.2c-1.3,0-3.1,0-3.1,0
		c-1.7,0-3,1.3-3,2.9c0,1.6,1.4,3,3,3c-1.6,0-3.1,3.2-4,7.8C21.5,32.2,20.8,32,20,32h-0.3c0,0,0.1-0.6,0.1-0.8c0-1.7-1.3-3.2-3-3.4
		c0.6-0.2,1-0.7,1-1.4c0-0.7-1.3-2.6-1.3-2.6s-1.3,1.8-1.3,2.6c0,0.6,0.4,1.1,1,1.3c-1.7,0.2-3,1.7-3,3.5c0,0.2,0,0.8,0.1,0.8H13
		c-1.7,0-3,1-3,2.6v0.9c-1,0.2-2.7,1.2-3.2,2.5C3.2,34.4,1,29.5,1,24c0-11,9-20,20-20C32.1,4,41,12.9,41,24z"/>
</g>
</svg>
