<?xml version="1.0" encoding="utf-8"?>
<!-- Generator: Adobe Illustrator 19.0.0, SVG Export Plug-In . SVG Version: 6.00 Build 0)  -->
<svg version="1.1" id="Layer_1" xmlns="http://www.w3.org/2000/svg" xmlns:xlink="http://www.w3.org/1999/xlink" x="0px" y="0px" width="42" height="45"
	 viewBox="0 0 42 45" style="enable-background:new 0 0 42 42;" xml:space="preserve">
<style type="text/css">
	.st0{fill:#fff;}
</style>
<g id="XMLID_5090_">
	<path id="XMLID_5243_" class="st0" d="M40,27l-3.4,1.4c-0.9,0.3-1.8,0.4-2.6,0l-3-1.1c-0.6-0.2-1.2-0.2-1.8,0l-2.9,1.2
		c-0.9,0.4-1.9,0.4-2.9,0l-3-1.2c-0.5-0.2-1.1-0.2-1.6,0l-4.4,1.4c3.1,0.6,6,1.4,8.8,2.4h0l6.1-1.9c0.9-0.3,1.8-0.2,2.6,0.1l3,1.2
		c0.6,0.2,1.5,0.2,2.1,0l2.9-1v0l-0.3,0c0.4-0.6,0.3-1.3,0.3-2L40,27L40,27z"/>
	<path id="XMLID_5224_" class="st0" d="M21.1,0.9c-4.9,0-9.4,1.8-12.9,4.7l5,15L8,16.8v10.8c1,0.1,2.2,0.4,3.5,0.4h0l6.8-2.2
		c0.9-0.3,1.8-0.2,2.6,0.1l3,1.2c0.6,0.2,1.2,0.2,1.8,0l2.9-1.1c0.9-0.4,1.9-0.4,2.9,0l3,1.2c0.5,0.2,1.4,0.2,1.9,0l4.6-1.4v-0.1
		c0-1.5,0.3-3.1,0.3-4.7C41.3,9.9,32.2,0.9,21.1,0.9z M34.4,9c1.1,0,2.1,0.9,2.1,2.1c0,1.1-0.9,2.1-2.1,2.1c-1.1,0-2.1-0.9-2.1-2.1
		C32.3,10,33.2,9,34.4,9z M34.7,23.2c-0.1,0.3-0.4,0.5-0.7,0.5c-0.1,0-0.2,0-0.2,0l-8.9-3c-0.4-0.1-0.6-0.5-0.5-0.9
		c0.1-0.4,0.5-0.6,0.9-0.5l8.9,3C34.6,22.4,34.8,22.8,34.7,23.2z M37.1,14.6c-0.8,0.4-1.6,0.6-2.5,0.6c-0.2,0-0.3,0-0.5,0
		C33.8,15.8,32,19,34,20.4c0.3,0.2,0.4,0.7,0.2,1c-0.1,0.2-0.4,0.3-0.6,0.3c-0.1,0-0.3,0-0.4-0.1c-1.8-1.2-1.8-3.3-1.2-5
		c-1.5,0.2-2.7,1.2-2.7,2.3c0,0.4-0.3,0.7-0.7,0.7c-0.4,0-0.7-0.3-0.7-0.7c0-2.1,2.2-3.8,4.8-3.9c0-0.1,0.1-0.1,0.1-0.2
		c-1.2-0.5-2.1-1.3-2.7-2.4c-0.2-0.4-0.1-0.8,0.3-1c0.4-0.2,0.8-0.1,1,0.3c0.5,0.9,1.3,1.6,2.3,1.9c1,0.3,2,0.2,2.9-0.3
		c0.4-0.2,0.8-0.1,1,0.3C37.5,14,37.4,14.4,37.1,14.6z"/>
	<path id="XMLID_5151_" class="st0" d="M38.2,31.4c-1.1,1.8-2.5,3.4-4.1,4.8c-2.5-1.5-5.5-3-8.7-4.2l4.4-1.5c0.5-0.2,1.1-0.2,1.6,0
		l3,1.2c0.9,0.4,1.9,0.4,2.9,0L38.2,31.4z"/>
	<path id="XMLID_5218_" class="st0" d="M28,39.9c-2.1,0.7-4.2,1.1-6.5,1.1c-5.3,0-10.5-2-13.5-5.4V30C16,31.4,23.2,35.4,28,39.9z"/>
	<path id="XMLID_5219_" class="st0" d="M6,16.3v17.9c-1-1.4-2.3-3-3.1-4.7C2.6,28.8,2.3,28,2,27.2c-0.6-2-1-4.1-1-6.2
		c0-0.4,0-0.8,0.1-1.2L6,16.3z"/>
	<g id="XMLID_5138_">
		<circle id="XMLID_5140_" class="st0" cx="34.4" cy="11.1" r="0.6"/>
	</g>
</g>
</svg>
