<?xml version="1.0" encoding="utf-8"?>
<!-- Generator: Adobe Illustrator 19.0.0, SVG Export Plug-In . SVG Version: 6.00 Build 0)  -->
<svg version="1.1" id="Layer_1" xmlns="http://www.w3.org/2000/svg" xmlns:xlink="http://www.w3.org/1999/xlink" x="0px" y="0px" width="42" height="45"
	 viewBox="0 0 42 45" style="enable-background:new 0 0 42 42;" xml:space="preserve">
<style type="text/css">
	.st0{fill:#fff;}
</style>
<g id="XMLID_26_">
	<path id="XMLID_34_" class="st0" d="M22.4,1.2c-11,0-19.7,9-19.7,20C2.6,30.9,10,39,19,40.8v-6.9c-1,0-1-0.6-1-1.4v-1.2
		c0-0.4,0-0.4,1-0.4V29h0.3c-1.7,0-2.9-1.5-3-3.1l-0.1-0.1c0-0.3,0-0.6,0-0.9C16.1,16.1,23.2,9,32,9c2.7,0,5.3,0.7,7.5,1.9
		C36,5.1,29.7,1.2,22.4,1.2z M31.2,9c-0.7,0-1.3-0.6-1.3-1.3c0-0.7,1.3-2.5,1.3-2.5s1.4,1.8,1.4,2.5C32.5,8.4,31.9,9,31.2,9z"/>
	<path id="XMLID_33_" class="st0" d="M35.7,25.7L35.7,25.7c0,0.1,0,0.1,0,0.2c0,0,0,0.1,0,0.1c0,0,0-0.1,0-0.1c0-0.1,0-0.2,0-0.3
		v-0.1h0C35.7,25.6,35.7,25.7,35.7,25.7z"/>
	<path id="XMLID_32_" class="st0" d="M35.7,25.7L35.7,25.7c0,0.1,0,0.1,0,0.2c0,0,0,0.1,0,0.1c0,0,0-0.1,0-0.1c0-0.1,0-0.2,0-0.3
		v-0.1h0C35.7,25.6,35.7,25.7,35.7,25.7z"/>
	<path id="XMLID_31_" class="st0" d="M35.7,25.7L35.7,25.7c0,0.1,0,0.1,0,0.2c0,0,0,0.1,0,0.1c0,0,0-0.1,0-0.1c0-0.1,0-0.2,0-0.3
		v-0.1h0C35.7,25.6,35.7,25.7,35.7,25.7z"/>
	<path id="XMLID_30_" class="st0" d="M35.7,26.1c0,0.1,0,0.2,0,0.3C35.7,26.3,35.7,26.2,35.7,26.1L35.7,26.1
		C35.7,26.1,35.7,26.1,35.7,26.1z"/>
	<path id="XMLID_29_" class="st0" d="M37,31.9v0.6c0,0.7,0.3,1.2,1,1.3c-2.5,3-5.8,5.3-9.6,6.4C28,40.4,28,40.6,27,40.7V34h-0.7
		c0.7,0,1.7-0.7,1.7-1.5v-0.6c0-0.7-1-0.9-1.7-0.9H27v-2h-1.5c1.7,0,3.2-2,3.2-3h0c0.1-2,1.6-3.5,3.5-3.5c1.4,0,2.6,0.7,3.2,1.9
		c0,0.1,0.1,0.3,0.1,0.4c0.1,0.3,0.3,0.2,0.4,0.7c0,0,0.2,0.1,0.2,0.1v0c0,0.1,0,0.2,0,0.3c0,0,0,0.1,0,0.1v0.1c0,0-0.1,0-0.1,0.1
		c0,0.1-0.1,0.2,0,0.3c0,0,0,0,0,0c0,0.2,0,0.3,0.1,0.5c0,0,0,0.1,0,0.1c0,0.1,0.1,0.2,0.1,0.3c0,0.1,0.1,0.2,0.1,0.3
		c0.1,0.1,0.1,0.2,0.2,0.3c0.1,0.1,0.2,0.3,0.3,0.4c0.5,0.4,1,0.7,1.7,0.7H38v2h0.1C37.3,31,37,31.2,37,31.9z"/>
	<path id="XMLID_28_" class="st0" d="M35.7,25.7L35.7,25.7c0,0.1,0,0.1,0,0.2c0,0,0,0.1,0,0.1c0,0,0-0.1,0-0.1c0-0.1,0-0.2,0-0.3
		v-0.1h0C35.7,25.6,35.7,25.7,35.7,25.7z"/>
</g>
</svg>
