<?xml version="1.0" encoding="utf-8"?>
<!-- Generator: Adobe Illustrator 19.0.0, SVG Export Plug-In . SVG Version: 6.00 Build 0)  -->
<svg version="1.1" id="Layer_1" xmlns="http://www.w3.org/2000/svg" xmlns:xlink="http://www.w3.org/1999/xlink" x="0px" y="0px" width="42" height="45" fill="#fff"
	 viewBox="0 0 42 42" style="enable-background:new 0 0 42 45;" xml:space="preserve">
<g id="XMLID_24_">
	<path id="XMLID_35_" d="M38.6,11.3l-6.2-2.5l-15.1,6.3L17,16v0l-5.8,13.7l-0.4,0.8l0.3,0.8l3.5,8.7C6.7,37.2,1.1,29.8,1.1,21.1
		c0-11,9-20,20-20C28.6,1.1,35.1,5.2,38.6,11.3z"/>
	<path id="XMLID_34_" d="M21.5,36.3l-2.7,4.6c-0.8-0.1-1.6-0.2-2.4-0.4l-3.5-8.4l7.7,2C21.6,34.3,22,35.4,21.5,36.3z"/>
	<path id="XMLID_33_" d="M20.6,27l-7.7,1.9l4.6-11l4,6.8C22,25.5,21.6,26.7,20.6,27z"/>
	<path id="XMLID_32_" d="M30.8,11l-1.9,7.7c-0.3,1-1.4,1.5-2.3,1l-6.8-4L30.8,11z"/>
	<path id="XMLID_31_" d="M40.9,18l-2.7,1.6c-0.9,0.5-2,0.1-2.3-1l-2-7.7l5.6,2.2C40.2,14.8,40.6,16.4,40.9,18z"/>
	<path id="XMLID_30_" d="M38.5,30.5c0,0.1,0,0.3,0,0.4c-1.2,2.2-2.8,4.1-4.8,5.7c-0.5,0.1-0.9,0.2-1.4,0.2c-3.4,0-6.2-2.8-6.2-6.2
		c0-3.4,2.8-6.2,6.2-6.2S38.5,27.1,38.5,30.5z"/>
</g>
</svg>
