<?xml version="1.0" encoding="utf-8"?>
<!-- Generator: Adobe Illustrator 19.0.0, SVG Export Plug-In . SVG Version: 6.00 Build 0)  -->
<svg version="1.1" id="Layer_1" xmlns="http://www.w3.org/2000/svg" xmlns:xlink="http://www.w3.org/1999/xlink" x="0px" y="0px" width="42" height="45"
	 viewBox="0 0 42 45" style="enable-background:new 0 0 42 42;" xml:space="preserve">
<style type="text/css">
	.st0{fill:#fff;}
</style>
<g id="XMLID_3_">
	<path id="XMLID_9_" class="st0" d="M31.5,24.5c-0.6,0.5-1.4,0.8-2.1,0.9c-1.1,0.1-2.3-0.2-2.9-1.1c0-0.1-0.1-0.1-0.1-0.1
		c0,0.1,0.1,0.4,0.1,0.4c0.6,0.8,1.6,1.4,2.7,1.4h0c0.1,0,0.2-0.3,0.2-0.3c0.7-0.1,1.5-0.5,2.1-1c1-0.8,1.6-2,1.6-3
		C33.1,22.7,32.5,23.7,31.5,24.5z M34.8,27.1c-2.6,0.9-5.1,1.4-7.3,1.4c-2.3,0-4.4-0.4-6-1.3c1.2,2.3,3.1,4.2,5.5,5.3
		c2.8,1.3,6,1.5,8.9,0.4l1.4-0.5c0,0,0-0.1,0.1-0.1c1.7-2.4,2.8-5.1,3.3-8.3C39,25.2,37,26.3,34.8,27.1z"/>
	<path id="XMLID_6_" class="st0" d="M40.9,21c0-0.2-0.1-0.5-0.1-0.7c-0.1,0.1-0.1,0.1-0.2,0.2c-1.7,1.3-3.9,1.2-5-0.2
		c-1.1-1.4-0.7-3.6,1-4.9c1-0.8,2.1-1.1,3.2-0.9c-0.4-1.1-0.9-2.2-1.4-3.2c-0.7-0.1-1.4-0.1-2.1-0.1c-0.6,0-1.2,0-1.8,0.1
		c0.5,1.4-0.1,3.1-1.4,4.2c-0.8,0.7-1.9,1-2.8,0.9c-0.9,0-1.7-0.4-2.3-1.1c-0.4-0.5-0.6-1.2-0.6-1.9c-5.3,2.6-8.5,6.8-7.3,10.1
		c0,0,0,0.1,0,0.2c1,2.6,4.8,4.5,9.2,3.5c0,0,0,0,0,0s0-0.1,0-0.1c0,0,0-0.1,0-0.1c0,0,0,0,0,0c0,0,0,0,0,0c0,0,0,0,0,0
		c0.1,0,0.1,0,0.2,0c1.5-0.2,3.1-0.5,4.7-1.1c2.5-0.9,4.8-2.2,6.5-3.8c0.1,0,0.1-0.1,0.1-0.1C41,21.5,40.9,21.2,40.9,21z M33.1,21.5
		c-0.1,1.1-0.6,2.2-1.6,3c-0.6,0.5-1.4,1.1-2.1,1.2c-0.1,0-0.2,0.3-0.2,0.3h0c-1.1,0-2.1-0.6-2.7-1.4c0-0.1-0.1-0.2-0.1-0.3
		c0-0.1-0.1-0.2-0.1-0.2c0-0.1-0.1-0.1-0.1-0.2c0,0,0,0,0,0c0,0,0,0,0-0.1c0,0,0,0,0,0c0-0.1-0.1-0.1-0.1-0.2c0,0,0,0,0,0
		c0,0,0,0,0-0.1c0-0.1,0-0.1-0.1-0.2c0-0.1,0-0.1,0-0.2c0,0,0-0.1,0-0.1c0,0,0,0,0-0.1c0-0.3,0-0.6,0-0.9c0.1-1,0.7-1.7,1.6-2.4
		c0.8-0.6,1.7-0.7,2.6-0.7h0.1c0.9,0,1.8,0.1,2.4,0.8c0.4,0.5,0.6,0.9,0.6,1.5C33.2,21.4,33.2,21.4,33.1,21.5z"/>
	<path id="XMLID_5_" class="st0" d="M18.7,23.9c0,0,0,0.1,0,0.1h0c0.1,1,0.1,0.4,0.2,0.5l0,0l0.7,1.8c1.2,3.3,3.6,5.9,6.8,7.4
		c1.8,0.8,3.6,1.2,5.5,1.2c1.2,0,2.5-0.2,3.7-0.5c-3.6,4-8.9,6.5-14.7,6.5C9.9,40.9,1,32,1,21C1,10,9.9,1.1,20.9,1.1
		c6.8,0,12.8,3.4,16.4,8.6c-1.3-0.1-2.6,0-3.9,0.2c-1.2-0.9-3-0.7-4.5,0.4c-0.4,0.3-0.8,0.7-1.1,1.1C21.1,14.2,17.1,19.6,18.7,23.9z
		"/>
	<path id="XMLID_4_" class="st0" d="M33.1,21.5c-0.1,1.1-0.6,2.2-1.6,3c-0.6,0.5-1.4,1.1-2.1,1.2c-0.1,0-0.2,0.3-0.2,0.3h0
		c-1.1,0-2.1-0.6-2.7-1.4c0-0.1-0.1-0.2-0.1-0.3c0,0.1,0.1,0,0.1,0.1c0.7,0.9,1.8,1.2,2.9,1c0.7-0.1,1.5-0.4,2.1-0.9
		C32.5,23.7,33.1,22.6,33.1,21.5z"/>
</g>
</svg>
