<?xml version="1.0" encoding="utf-8"?>
<!-- Generator: Adobe Illustrator 19.0.0, SVG Export Plug-In . SVG Version: 6.00 Build 0)  -->
<svg version="1.1" id="Layer_1" xmlns="http://www.w3.org/2000/svg" xmlns:xlink="http://www.w3.org/1999/xlink" x="0px" y="0px" width="42" height="45"
	 viewBox="0 0 42 45" style="enable-background:new 0 0 42 42;" xml:space="preserve">
<style type="text/css">
	.st0{fill:#fff;}
</style>
<g id="XMLID_129_">
	<polygon id="XMLID_170_" class="st0" points="34.5,17 34.4,26 28,26 27.9,25.9 27.8,26 21,26 21,17 	"/>
	<polygon id="XMLID_169_" class="st0" points="28,26.1 27.8,26.1 27.9,26 	"/>
	<path id="XMLID_167_" class="st0" d="M41,20.7c0,5.1-1.9,9.7-5.1,13.3l0-5.9l0-12.5l-7.9-9.4L28,6.1v-4l0-0.1c0,0,0-0.1,0-0.1h0
		C35.6,5,41,12.1,41,20.7z"/>
	<path id="XMLID_166_" class="st0" d="M33.4,36.4L33.4,36.4c-3.4,2.7-7.7,4.5-12.4,4.5c-0.3,0-0.6,0.1-0.9,0.1c0,0-0.1-0.1-0.2-0.1
		h0c0,0-0.1-0.2-0.1-0.2C9.3,40.2,1,31.4,1,20.8c0-11,9-20,20-20c2.4,0,4.8,0.2,6.9,1.2H27v5.1l-7,8.4V40l8-11.4L33.4,36.4
		L33.4,36.4z"/>
	
		<rect id="XMLID_165_" x="33.4" y="36.4" transform="matrix(0.7071 -0.7071 0.7071 0.7071 -15.959 34.2716)" class="st0" width="0" height="0"/>
	<path id="XMLID_161_" class="st0" d="M35.9,34C35.9,34.1,35.9,34.1,35.9,34L35.9,34l-0.1-5.9l0-12.5L28,6.2l7.9,9.4l0,12.5L35.9,34
		z"/>
	<polygon id="XMLID_133_" class="st0" points="34.4,28 34.4,35.1 29.4,28 	"/>
	<polygon id="XMLID_131_" class="st0" points="26.4,28 21,35.4 21,28 	"/>
</g>
</svg>
