<?xml version="1.0" encoding="utf-8"?>
<!-- Generator: Adobe Illustrator 19.0.0, SVG Export Plug-In . SVG Version: 6.00 Build 0)  -->
<svg version="1.1" id="Layer_1" xmlns="http://www.w3.org/2000/svg" xmlns:xlink="http://www.w3.org/1999/xlink" x="0px" y="0px" width="42" height="45" fill="#fff"
	 viewBox="0 0 42 45" style="enable-background:new 0 0 42 42;" xml:space="preserve">
<g id="XMLID_1876_">
	<path id="XMLID_35_" d="M27.1,2.8l-8.2,4.1l7.1,3.6v1.2c-1,0.3-1.1,0.9-1.1,1.7c0,0.6,0.3,1.5,0.8,1.5h-1.5c-0.8,0-1.4,0.4-1.8,1
		l-1.7,3h0.1c-0.5,0-1.1,0.3-1.4,0.6c-0.1,0.1-0.2,0.2-0.2,0.4c-0.2,0.3-0.3,0.7-0.3,1.1c0,0.1,0,0.3,0,0.4c0,0.1,0,0.2,0.1,0.2
		c0,0.2,0.1,0.3,0.2,0.4c0,0.1,0.1,0.1,0.1,0.2c0,0,0.1,0.1,0.1,0.2c0.1,0.1,0.3,0.3,0.5,0.4c0.2,0.1,0.4,0.1,0.5,0.1
		c0.1,0,0.3-0.1,0.4-0.1H21v4.3c-3,0-4.1,5.5-4.9,13.4C7.5,38.5,1,30.6,1,21.3c0-11,8.9-20,20-20c2.2,0,4.3,0.4,6.3,1L27.1,2.8z"/>
	<path id="XMLID_34_" d="M40.9,21.3c0,4.5-1.5,8.7-4,12c-0.9-3.8-2.2-6.1-3.6-6.1L33,27.1V23h-0.5c1.1,0,2-0.9,2-2s-0.9-2-2-2h0.6
		l-1.3-2.8c-0.3-0.7-1.1-1.2-1.9-1.2H28c0.4,0,0.4-0.9,0.4-1.5c0-0.8-0.5-1.5-1.5-1.8V2.8l0.2-0.5c0.1,0,0.3,0.1,0.4,0.1l0,0.1
		C35.2,5.3,40.9,12.7,40.9,21.3z"/>
</g>
</svg>
