<?xml version="1.0" encoding="utf-8"?>
<!-- Generator: Adobe Illustrator 19.0.0, SVG Export Plug-In . SVG Version: 6.00 Build 0)  -->
<svg version="1.1" id="Layer_1" xmlns="http://www.w3.org/2000/svg" xmlns:xlink="http://www.w3.org/1999/xlink" x="0px" y="0px"  width="42" height="45"
	 viewBox="0 0 42 45" style="enable-background:new 0 0 42 42;" xml:space="preserve">
<style type="text/css">
	.st0{fill:#fff;}
	.st1{fill:none;}
</style>
<g id="XMLID_23_">
	<path id="XMLID_36_" class="st0" d="M21.4,1.6C10.4,1.3,1.2,10.1,1,21.1c-0.1,3.7,0.9,7.2,2.6,10.2c0.1,0.1,0.2,0.3,0.2,0.4
		c0.5,0.9,1.1,1.7,1.7,2.5l0.1-3.3l0-0.6c1.1-0.9,2.3-1.7,3.5-2.6c2.2-1.6,4.5-3.2,6.5-4.5c2-1.4,4.5-1.8,6.8-1.3
		c0.3,0.1,0.6,0.1,0.9,0.2c-0.3-0.1-0.7-0.2-1-0.2C23.1,17.6,24,15,25,15v0c-1,0-1.8-0.9-1.8-2l0.1-0.3c0-1.1,1-2,2.1-2
		c1-0.4,2-0.7,3.1-0.7c-0.4-0.2-0.6-0.7-0.6-1.1c0-0.7,1.3-2.6,1.4-2.7c0-0.1,1.2,2,1.2,2.8c0,0.5-0.3,0.9-0.6,1.1
		c1.2,0.1,2.4,0.4,3.6,0.9c1.1,0,2,0.9,2,2l0,0.3c0,1.1-0.9,2-2,2c1.2,0,2.3,3.4,2.9,8.8c0.3,2.3,0.5,4.9,0.7,7.8
		c0,0.6,0.1,1.2,0.1,1.8c0.3-0.3,0.5-0.7,0.7-1c2-3,3.2-6.6,3.3-10.5C41.2,10.9,32.5,1.8,21.4,1.6z M20.1,21.6
		c-0.7,0-1.3-0.6-1.3-1.3c0-0.7,1.3-2.6,1.4-2.7c0-0.1,1.2,2,1.2,2.8C21.4,21,20.8,21.6,20.1,21.6z"/>
	<line id="XMLID_35_" class="st1" x1="9.1" y1="27.3" x2="9.1" y2="27.6"/>
	<path id="XMLID_34_" class="st0" d="M29.8,3.7"/>
	<path id="XMLID_33_" class="st0" d="M27,27.2"/>
	<path id="XMLID_31_" class="st0" d="M38,10.1"/>
	<path id="XMLID_30_" class="st0" d="M14.7,28.8l-0.1,6.7l-0.1,4.9c-2-0.7-3.9-1.7-5.6-3l0-2.2L9,30.1L14.7,28.8z"/>
</g>
</svg>
