<?xml version="1.0" encoding="utf-8"?>
<!-- Generator: Adobe Illustrator 19.0.0, SVG Export Plug-In . SVG Version: 6.00 Build 0)  -->
<svg version="1.1" id="Layer_1" xmlns="http://www.w3.org/2000/svg" xmlns:xlink="http://www.w3.org/1999/xlink" x="0px" y="0px"  width="42" height="45"
	 viewBox="0 0 42 45" style="enable-background:new 0 0 42 42;" xml:space="preserve">
<style type="text/css">
	.st0{fill:#fff;}
</style>
<g id="XMLID_28_">
	<path id="XMLID_39_" class="st0" d="M29.9,29.5l0,0.2l-3.7,10.6C24.6,40.8,22.8,41,21,41c-0.6,0-1.2,0-1.9-0.1l0-23.3l2.5,8.2
		l2.9-11.7L29.9,29.5z"/>
	<path id="XMLID_29_" class="st0" d="M21,1C10,1,1,10,1,21c0,9.9,6.8,18.1,16.3,19.7c0.1,0-0.3,0-0.3,0v0l0.4-33.1l3.9,12.7l2-7.4
		h12.5l-5.9,16.7l0,0.1l2.6,7.5C37.7,33.8,41,27.8,41,21C41,10,32,1,21,1z M29.9,10.8c-1.9,0-3.4-0.9-3.4-2.1c0-1.2,1.5-2.1,3.4-2.1
		c1.9,0,3.4,0.9,3.4,2.1C33.3,9.8,31.8,10.8,29.9,10.8z"/>
</g>
</svg>
