<?xml version="1.0" encoding="utf-8"?>
<!-- Generator: Adobe Illustrator 19.0.0, SVG Export Plug-In . SVG Version: 6.00 Build 0)  -->
<svg version="1.1" id="Layer_1" xmlns="http://www.w3.org/2000/svg" xmlns:xlink="http://www.w3.org/1999/xlink" x="0px" y="0px" width="42" height="45"
	 viewBox="-34 35 42 45" style="enable-background:new -34 35 42 42;" xml:space="preserve">
<style type="text/css">
	.st0{fill:#fff;}
</style>
<g>
	<path class="st0" d="M0,71.2c-1.4,1.2-3,2.3-4.8,3V60.5l3.7,3.2l-2,4L0,71.2z"/>
	<path class="st0" d="M-10.1,63.4l3.9-3.3v14.8C-8.3,75.6-10.6,76-13,76c-11,0-20-9-20-20c0-11,9-20,20-20c6.3,0,11.9,2.9,15.6,7.4
		H-19l0.1,13.4l4.8-3.7l0.1,21.6l6-7.1L-10.1,63.4z"/>
	<path class="st0" d="M7,56c0,4.6-1.5,8.8-4.1,12.2l0-15.2L7,55.8C7,55.9,7,55.9,7,56z"/>
</g>
</svg>
